<?xml version="1.0"?>
<svg width="800" height="200" xmlns="http://www.w3.org/2000/svg" xmlns:svg="http://www.w3.org/2000/svg">
 <g class="layer">
  <title>Layer 1</title>
  <path d="m146.24,58.13c-1.22,0 -2.44,0.1 -3.65,0.1c-24.61,1.15 -41.21,10.61 -50.91,29.09c-8.3,16.72 -7.39,38.56 0.1,55.38c8.7,16.44 22.77,25.11 46.25,28.38c4.97,0.71 8.3,3.09 17.93,12.91l11.84,12.12l21.47,0l-14.28,-12.58c-7.89,-6.9 -14.27,-12.9 -14.27,-13.43c0,-0.53 3.02,-1.68 6.67,-2.66c12.05,-3.19 22.05,-11.32 29.05,-23.79c5.67,-10.01 6.48,-13.11 7.29,-25.56c2.12,-37.07 -20.24,-60.25 -57.49,-59.98l0,0.01zm18.82,96.94c-10.45,4.42 -25.62,5.3 -35.52,2.13c-10.23,-3.29 -20.15,-12.58 -24.61,-23.1c-4.96,-11.5 -4.25,-32.72 1.42,-42.28c9.11,-15.21 21.16,-22.21 38.77,-22.21c26.11,0 40.97,13.98 42.91,40.25c1.53,21.93 -6.87,38.38 -22.96,45.2l-0.01,0.01zm370.94,-65.28c-9,0 -15.9,3.19 -20.54,9.47l-3.65,4.97l0,-12.92l-15.59,0l0,77.49l15.58,0l0,-24.77c0,-22.65 0.33,-25.3 3.94,-31.5c4.99,-8.5 13.58,-12.74 21.88,-10.71l5.57,1.42l0,-13.43l-7.2,0l0,-0.02zm-91.58,-0.71c-3.06,0 -6.29,0.36 -9.52,0.97c-20.86,4.77 -32.62,22.21 -31.9,40.16c0,15.03 3.35,22.55 11.64,30.43c17,12.19 32.39,13.16 53.14,6.62c3.54,-1.32 7.39,-2.84 7.39,-2.84l0,-12.19l-7.39,3.35c-16.8,6.39 -29.45,6.39 -39.58,-1.14c-6.47,-5.75 -9.31,-12.65 -10.62,-20.52l62.85,0l0,-10.45c0,-21.3 -14.67,-34.75 -36.03,-34.4l0.02,0zm-25.42,33.98s2.32,-13.29 10.93,-18.5c4.15,-2.56 8.91,-3.79 13.56,-3.79c4.67,0 9.32,1.32 13.16,3.88c7.89,5.31 9.22,18.31 9.22,18.31l-46.87,0l0,0.1l0,0zm-375.81,-13.98c-16.9,-8.95 -24.4,-15.4 -23.48,-23c2.62,-21.05 32.38,-18.14 48.86,-10.17l0.12,-14.16s-9.11,-3.45 -22.17,-3.63c-20.03,-0.26 -32.99,5.48 -39.06,17.16c-8.92,17.24 -1.02,30.25 27.51,44.75c16.02,8.14 23.1,15.21 23.1,22.92c0,15.92 -21.97,21.48 -44.64,11.49c-4.67,-2.03 -8.61,-3.72 -8.82,-3.72c-0.81,4.51 -0.4,15.31 -0.4,15.31s6.96,2.56 17.41,4.32c25.91,4.51 49.48,-6.11 51.7,-23.35c1.94,-16.19 -4.76,-24.68 -30.14,-37.93l-0.01,0.01zm630.77,-20.18c-3.04,0 -6.27,0.36 -9.63,0.98c-20.84,4.77 -32.57,22.21 -31.77,40.17c0,15.01 3.33,22.46 11.63,30.32c17,12.2 32.39,13.18 53.25,6.64c3.53,-1.32 7.37,-2.82 7.37,-2.82l0,-12.21l-7.39,3.37c-16.83,6.37 -29.48,6.37 -39.58,-1.16c-6.5,-5.74 -9.32,-12.56 -10.64,-20.52l62.75,0l0,-10.45c0,-21.2 -14.67,-34.66 -36.03,-34.3l0.04,-0.02zm-25.42,33.98s2.34,-13.26 10.94,-18.58c4.14,-2.56 8.9,-3.8 13.55,-3.8c4.65,0 9.32,1.32 13.17,3.9c7.89,5.3 9.22,18.4 9.22,18.4l-46.86,0l-0.01,0.09zm-285.72,-13.62c-16.9,-8.92 -24.38,-15.4 -23.47,-23.01c2.62,-21.06 32.38,-18.13 48.87,-10.17l0.11,-14.16s-9.11,-3.45 -22.17,-3.61c-20.03,-0.26 -32.99,5.48 -39.07,17.16c-8.9,17.24 -0.9,30.25 27.53,44.75c15.99,8.13 23.07,15.11 23.07,22.82c0,15.93 -21.96,21.58 -44.63,11.49c-4.65,-2.03 -8.59,-3.7 -8.82,-3.7c-0.81,4.51 -0.4,15.31 -0.4,15.31s6.88,2.46 17.29,4.32c25.93,4.52 49.52,-6.09 51.74,-23.33c1.93,-16.11 -4.76,-24.6 -30.06,-37.86l0,-0.02zm402.73,-19.65c-9.01,0 -15.98,3.19 -20.55,9.48l-3.65,4.95l0,-12.9l-15.59,0l0,77.47l15.58,0l0,-24.77c0,-22.64 0.32,-25.3 3.95,-31.49c4.99,-8.49 13.58,-12.74 21.88,-10.7l5.57,1.42l0,-13.46l-7.19,0zm-526.69,19.2l0,-49.35l-15.71,0l0,109.32l66.09,0l0,-12.91l-50.37,0l0,-47.06zm363.44,15.39l-12.95,29.46l-12.46,-29.62l-12.65,-32.82l-16.08,0c10.42,25.82 21.76,52.09 33.2,77.56c4.96,0.1 9.92,0 14.88,0l17.49,-38.38l17.82,-39.17l-15.38,0s-6.79,15.56 -13.87,32.98l0.01,-0.01zm-327.23,-94.53c2.53,0 4.65,-0.71 6.39,-2.23c1.72,-1.5 2.62,-3.26 2.62,-5.48c0,-2.21 -0.9,-4.06 -2.62,-5.48c-1.74,-1.42 -3.75,-2.13 -6.27,-2.13c-2.55,0 -4.67,0.71 -6.39,2.21c-1.74,1.5 -2.53,3.35 -2.53,5.48c0,2.24 0.81,4.08 2.53,5.48c1.63,1.42 3.74,2.13 6.27,2.13l0,0.02zm-5.57,-12.58c1.5,-1.32 3.34,-1.93 5.68,-1.93c2.21,0 4.04,0.61 5.57,1.93c1.51,1.32 2.32,2.92 2.32,4.87c0,1.95 -0.81,3.63 -2.32,4.95c-1.53,1.32 -3.37,1.95 -5.57,1.95c-2.24,0 -4.06,-0.61 -5.57,-1.95c-1.51,-1.32 -2.32,-3 -2.32,-4.95c0,-1.95 0.7,-3.55 2.21,-4.87zm3.75,5.58l1.02,0c0.72,0 1.43,0.61 2.03,1.76l1.22,2.39l1.92,0l-1.51,-2.66c-0.62,-1.07 -1.22,-1.68 -1.93,-1.86c0.89,-0.18 1.6,-0.45 2.11,-0.98c0.51,-0.45 0.7,-1.07 0.7,-1.77c0,-0.81 -0.29,-1.42 -0.9,-1.87c-0.7,-0.51 -1.81,-0.78 -3.25,-0.78l-3.22,0l0,9.91l1.62,0l0,-4.16l0.2,0zm0,-4.61l1.42,0c1.02,0 1.74,0.18 2.14,0.45c0.38,0.26 0.49,0.61 0.49,1.23c0,1.15 -0.81,1.68 -2.32,1.68l-1.74,0l0,-3.37l0.02,0zm-259.6,3.72c0,-3.45 -0.11,-6.01 -0.21,-7.53l0.1,0c0.4,1.79 0.9,3.12 1.31,3.99l15.09,29.46l2.53,0l15.09,-29.72c0.41,-0.81 0.81,-2.03 1.32,-3.72l0.11,0c-0.3,2.94 -0.41,5.5 -0.41,7.53l0,26l5.17,0l0,-38.65l-6.48,0l-13.87,26.88c-0.51,1.07 -1.22,2.66 -2.12,4.77l-0.21,0c-0.31,-1.04 -1.01,-2.64 -2.02,-4.58l-13.56,-27.15l-6.88,0l0,38.64l4.97,0l0,-25.91l0.08,-0.02zm51.41,0.07l4.46,0l0,24.06l-4.46,0l0,-24.06zm2.23,-8.83c0.93,0 1.72,-0.28 2.32,-0.81c0.62,-0.53 1.02,-1.22 1.02,-2.03c0,-0.8 -0.31,-1.5 -1.01,-2.03c-0.63,-0.54 -1.43,-0.81 -2.34,-0.81c-0.9,0 -1.72,0.28 -2.32,0.81c-0.61,0.53 -1.02,1.23 -1.02,2.03c0,0.88 0.32,1.5 1.02,2.03c0.7,0.54 1.42,0.81 2.32,0.81l0.01,0zm34.01,33.42l0,-4.24c-2.44,1.59 -5.06,2.38 -7.78,2.38c-3.25,0 -5.88,-0.97 -7.81,-2.84c-1.92,-1.84 -2.94,-4.41 -2.94,-7.61c0,-3.35 1.02,-6.01 3.13,-8.04c2.03,-1.95 4.67,-2.92 7.89,-2.92c2.63,0 5.17,0.71 7.5,2.13l0,-4.51c-2.12,-0.97 -4.55,-1.42 -7.29,-1.42c-5.06,0 -9,1.42 -11.95,4.16c-2.93,2.74 -4.44,6.46 -4.44,10.95c0,3.99 1.31,7.35 4.04,9.92c2.84,2.64 6.48,3.98 10.94,3.98c3.45,-0.08 6.27,-0.71 8.7,-1.95zm12.75,-12.83c0,-3.18 0.81,-5.74 2.32,-7.51c1.42,-1.59 3.13,-2.39 5.17,-2.39c1.72,0 2.93,0.28 3.83,0.89l0,-4.6c-0.7,-0.27 -1.7,-0.36 -3.01,-0.36c-1.83,0 -3.45,0.53 -4.88,1.52c-1.51,1.04 -2.71,2.64 -3.43,4.67l-0.11,0l0,-5.65l-5.05,0l0,27.59l5.06,0l0,-14.16l0.1,0zm29.05,14.71c4.76,0 8.59,-1.34 11.43,-3.99c2.83,-2.64 4.25,-6.19 4.25,-10.61c0,-4.51 -1.3,-7.96 -3.95,-10.53c-2.62,-2.56 -6.27,-3.8 -11.03,-3.8s-8.59,1.24 -11.43,3.63c-3.04,2.64 -4.64,6.36 -4.64,11.14c0,4.16 1.3,7.61 4.04,10.17c2.83,2.66 6.58,3.98 11.33,3.98l0,0.01zm-7.19,-22.47c1.93,-1.78 4.45,-2.66 7.59,-2.66c3.25,0 5.68,0.88 7.5,2.66c1.82,1.86 2.72,4.5 2.72,8.04c0,3.37 -0.81,6.01 -2.53,7.79c-1.72,1.86 -4.25,2.84 -7.6,2.84c-3.25,0 -5.76,-0.98 -7.69,-2.84c-1.92,-1.87 -2.84,-4.42 -2.84,-7.79c-0.19,-3.34 0.81,-6.09 2.84,-8.04zm45.04,20.07c1.93,-1.5 2.95,-3.34 2.95,-5.66c0,-2.03 -0.81,-3.71 -2.32,-5.04c-1.23,-1.06 -3.14,-2.03 -5.89,-3c-2.44,-0.89 -3.94,-1.68 -4.76,-2.31c-0.81,-0.71 -1.31,-1.59 -1.31,-2.84c0,-1.15 0.51,-2.03 1.51,-2.74c1.02,-0.71 2.32,-1.06 4.06,-1.06c2.73,0 5.06,0.63 7.19,1.96l0,-4.42c-2.04,-0.89 -4.26,-1.31 -6.79,-1.31c-3.25,0 -5.99,0.78 -8.01,2.29c-2.12,1.51 -3.13,3.45 -3.13,5.74c0,2.03 0.7,3.71 2.02,4.95c1.11,1.06 3.02,2.13 5.66,3.09c2.53,0.98 4.25,1.86 5.17,2.57c0.91,0.71 1.31,1.59 1.31,2.64c0,2.58 -2.02,3.91 -5.96,3.91c-3.04,0 -5.77,-0.87 -8.21,-2.64l0,4.77c2.21,1.16 4.85,1.68 7.78,1.68c3.75,-0.17 6.69,-0.97 8.7,-2.56l0.03,-0.01zm24.1,-26.53c-4.76,0 -8.59,1.24 -11.44,3.63c-3.01,2.64 -4.64,6.36 -4.64,11.14c0,4.16 1.31,7.61 4.04,10.17c2.84,2.66 6.58,3.98 11.34,3.98c4.87,0 8.59,-1.34 11.43,-3.99c2.84,-2.64 4.26,-6.19 4.26,-10.61c0,-4.51 -1.32,-7.96 -3.94,-10.52c-2.74,-2.57 -6.39,-3.81 -11.03,-3.81l-0.02,0.01zm9.82,14.51c0,3.36 -0.81,6.01 -2.53,7.79c-1.72,1.86 -4.24,2.84 -7.59,2.84c-3.25,0 -5.77,-0.98 -7.7,-2.84c-1.92,-1.87 -2.83,-4.42 -2.83,-7.79c0,-3.55 1.01,-6.29 3.04,-8.14c1.92,-1.76 4.45,-2.66 7.6,-2.66c3.13,0 5.65,0.89 7.47,2.66c1.63,1.95 2.53,4.6 2.53,8.14l0.01,0zm13.68,13.8l5.05,0l0,-23.89l7.39,0l0,-3.71l-7.39,0l0,-4.26c0,-3.87 1.72,-5.82 5.27,-5.82c1.19,0 2.41,0.26 3.32,0.71l0,-3.98c-0.9,-0.36 -2.12,-0.44 -3.65,-0.44c-2.73,0 -4.96,0.71 -6.78,2.21c-2.12,1.76 -3.25,4.06 -3.25,7.16l0,4.52l-5.34,0l0,3.71l5.34,0l0,23.8l0.04,-0.01zm20.74,-7.53c0,5.4 2.73,8.14 8.3,8.14c2.02,0 3.54,-0.28 4.76,-0.91l0,-3.79c-0.93,0.61 -2.03,0.89 -3.25,0.89c-1.71,0 -2.92,-0.36 -3.63,-1.16c-0.72,-0.79 -1.13,-2.13 -1.13,-3.98l0,-15.57l8.01,0l0,-3.71l-8.01,0l0,-8.13c-1.74,0.53 -3.45,0.97 -5.06,1.42l0,6.72l-5.46,0l0,3.71l5.46,0l0,16.36l0.01,0.01zm543.21,50.85c-1.72,-1.42 -3.75,-2.13 -6.27,-2.13c-2.55,0 -4.67,0.71 -6.39,2.24c-1.72,1.49 -2.53,3.34 -2.53,5.48c0,2.21 0.81,4.06 2.52,5.48c1.72,1.42 3.83,2.13 6.38,2.13c2.52,0 4.65,-0.71 6.39,-2.21c1.71,-1.52 2.61,-3.27 2.61,-5.48c-0.09,-2.23 -1.01,-4.08 -2.72,-5.5l0.01,0zm-0.81,10.45c-1.51,1.31 -3.35,1.92 -5.57,1.92c-2.21,0 -4.04,-0.61 -5.57,-1.92c-1.51,-1.34 -2.32,-3.02 -2.32,-4.97c0,-1.93 0.7,-3.53 2.23,-4.87c1.51,-1.32 3.33,-1.93 5.66,-1.93c2.21,0 4.04,0.61 5.57,1.93c1.51,1.34 2.32,2.94 2.32,4.87c0,2.05 -0.7,3.63 -2.32,4.97zm-4.55,-4.52c0.9,-0.18 1.63,-0.53 2.12,-0.97c0.51,-0.45 0.7,-1.08 0.7,-1.78c0,-0.79 -0.29,-1.42 -0.9,-1.86c-0.7,-0.51 -1.82,-0.78 -3.25,-0.78l-3.23,0l0,9.9l1.63,0l0,-4.16l1.01,0c0.7,0 1.4,0.61 2.02,1.76l1.2,2.39l1.93,0l-1.51,-2.66c-0.52,-1.16 -1.12,-1.68 -1.74,-1.86l0.02,0.02zm-1.11,-0.89l-1.74,0l0,-3.35l1.43,0c1.01,0 1.72,0.16 2.12,0.43c0.41,0.27 0.5,0.61 0.5,1.24c0,1.15 -0.81,1.67 -2.32,1.67l0.01,0zm-282.39,-77.12l1.42,0l0,-9.91l3.75,0l0,-1.24l-8.91,0l0,1.24l3.75,0l0,9.91l0,0zm8.59,-7.44c0,-0.97 0,-1.76 -0.08,-2.2c0.09,0.53 0.3,0.88 0.4,1.15l4.35,8.5l0.7,0l4.36,-8.58c0.12,-0.27 0.21,-0.61 0.41,-1.07c-0.09,0.88 -0.09,1.59 -0.09,2.13l0,7.51l1.51,0l0,-11.14l-1.83,0l-3.94,7.69c-0.09,0.27 -0.41,0.81 -0.6,1.42l-0.11,0c-0.09,-0.36 -0.29,-0.71 -0.58,-1.32l-3.94,-7.79l-2.04,0l0,11.16l1.43,0l0,-7.45l0.08,-0.01z" fill="#231F1F" id="svg_5"/>
 </g>
</svg>